<svg width="63" height="39" viewBox="0 0 63 39" fill="none" xmlns="http://www.w3.org/2000/svg">
<path d="M62.6265 38.3284C58.1703 36.7964 53.9786 34.8444 49.5847 33.3668C39.016 29.8205 28.3617 30.6293 17.6763 32.6747C11.8436 33.7867 6.08096 35.2332 0.294983 36.6875C3.55349 34.0434 7.19306 32.138 11.0037 30.5049C18.5861 27.2542 26.4641 24.9833 34.7153 25.03C46.0151 25.1 55.1218 30.2483 62.6265 38.3284Z" fill="#EE6908"/>
<path d="M32.8022 23.1169C28.2605 15.5423 30.0103 8.13092 32.0168 0.0974274C35.0031 7.94427 35.283 15.309 32.8022 23.1169Z" fill="#EE6908"/>
<path d="M42.7659 24.3349C41.3271 17.8723 44.1657 12.8796 47.2764 7.77795C48.6374 11.713 46.4832 19.5677 42.7659 24.3349Z" fill="#EE6908"/>
<path d="M15.3898 8.65973C18.9827 13.7147 20.3125 18.5908 19.7682 24.2834C16.4552 21.9115 14.6432 15.6122 15.3898 8.65973Z" fill="#EE6908"/>
<path d="M60.9019 16.4545C59.8909 21.4939 56.5157 26.3311 52.8528 28.2675C53.3739 23.0026 56.9046 19.8452 60.9019 16.4545Z" fill="#EE6908"/>
<path d="M4.48364 16.7537C8.01433 20.611 9.55415 24.585 9.98188 29.5777C5.81349 26.1559 5.02802 21.8631 4.48364 16.7537Z" fill="#EE6908"/>
</svg>